# xmcd CD database file
#
# Track frame offsets:
#	150
#	15275
#	31410
#	45507
#	59005
#	74562
#	89142
#	104252
#	118832
#	133595
#	148357
#	162497
#	177625
#	192772
#	208007
#	221110
#	235102
#	248492
#	263455
#	275720
#	291227
#	306340
#
# Disc length: 4258 seconds
#
# Revision: 2
# Processed by: cddbd v1.5.2PL0 Copyright (c) Steve Scherf et al.
# Submitted via: CDex 1.51
#
DISCID=5d10a016
DTITLE=Clara Smith - The Queen Of The Moaners  {1923-1932}
DYEAR=2001
DGENRE=Blues
TTITLE0=Irresistible Blues   [1923]
TTITLE1=Every Woman's Blues   [1923]
TTITLE2=Awful Moanin' Blues   [1923]
TTITLE3=Far Away Blues   [1923]
TTITLE4=It Won't Be Long Now   [1924]
TTITLE5=31st Street Blues   [1924]
TTITLE6=Texas Moaner Blues   [1924]
TTITLE7=Death Letter Blues   [1924]
TTITLE8=Shipwrecked Blues   [1925]
TTITLE9=Court House Blues   [1925]
TTITLE10=When My Sugar Walks Down The Street   [1925]
TTITLE11=Whip It To A Jelly   [1926]
TTITLE12=Percolatin' Blues   [1926]
TTITLE13=Livin' Humble   [1926]
TTITLE14=Strugglin' Woman's Blues   [1927]
TTITLE15=Sobbin' Sister Blues   [1928]
TTITLE16=Wanna Go Home   [1928]
TTITLE17=It's Tight Like That   [1929]
TTITLE18=Oh ! Mister Mitchell   [1929]
TTITLE19=Low Land Blues   [1930]
TTITLE20=You Had Too Much   [1930]
TTITLE21=So Long Jim   [1932]
EXTD=EPM Musique, France YEAR: 2001
EXTT0=
EXTT1=
EXTT2=
EXTT3=
EXTT4=
EXTT5=
EXTT6=
EXTT7=
EXTT8=
EXTT9=
EXTT10=
EXTT11=
EXTT12=
EXTT13=
EXTT14=
EXTT15=
EXTT16=
EXTT17=
EXTT18=
EXTT19=
EXTT20=
EXTT21=
PLAYORDER=
